<?xml version="1.0" standalone="no"?><!DOCTYPE svg PUBLIC "-//W3C//DTD SVG 1.1//EN" "http://www.w3.org/Graphics/SVG/1.1/DTD/svg11.dtd"><svg t="1646555511783" class="icon" viewBox="0 0 1024 1024" version="1.1" xmlns="http://www.w3.org/2000/svg" p-id="5946" width="40" height="40" xmlns:xlink="http://www.w3.org/1999/xlink"><defs><style type="text/css"></style></defs><path d="M64 256a192 192 0 0 1 384 0v64h128V256a192 192 0 1 1 192 192h-64v128h64a192 192 0 1 1-192 192v-64H448v64a192 192 0 1 1-192-192h64V448H256a192 192 0 0 1-192-192z m256 64V256a64 64 0 1 0-64 64h64z m128 128v128h128V448H448z m-128 256H256a64 64 0 1 0 64 64v-64z m384 0v64a64 64 0 1 0 64-64h-64z m0-384h64a64 64 0 1 0-64-64v64z" fill="#c75450" p-id="5947"></path></svg>