<svg t="1645101781534" class="icon" viewBox="0 0 1024 1024" version="1.1" xmlns="http://www.w3.org/2000/svg" p-id="1896" width="18" height="18"><path d="M384 640H320A64 64 0 1 0 384 704V640z m0 0V384h256v256H384z m256 64a64 64 0 1 0 64-64H640v64zM704 384A64 64 0 1 0 640 320V384h64zM384 320A64 64 0 1 0 320 384H384V320z m85.333333 234.666667h85.333334v-85.333334h-85.333334v85.333334z m85.333334-85.333334V320a149.333333 149.333333 0 1 1 149.333333 149.333333H554.666667z m149.333333 85.333334a149.333333 149.333333 0 1 1-149.333333 149.333333V554.666667h149.333333zM469.333333 704A149.333333 149.333333 0 1 1 320 554.666667H469.333333v149.333333zM320 469.333333A149.333333 149.333333 0 1 1 469.333333 320V469.333333H320z" fill="#c75450" p-id="1897"></path></svg>