<?xml version="1.0" standalone="no"?><!DOCTYPE svg PUBLIC "-//W3C//DTD SVG 1.1//EN"
        "http://www.w3.org/Graphics/SVG/1.1/DTD/svg11.dtd">
<svg t="1599444602921" class="icon" viewBox="0 0 1024 1024" version="1.1" xmlns="http://www.w3.org/2000/svg" p-id="1675"
     width="14" height="14">
    <defs>
        <style type="text/css"></style>
    </defs>
    <path d="M778.24512 599.02976l215.03488-215.04c40.96-40.95488 40.96-102.40512 0-143.36l-215.03488-215.04c-10.25536-10.25024-20.47488-15.36512-35.84512-20.48C737.29024 0 721.93024 0 706.56 0c-15.36512 0-25.58464 0-35.84 5.11488-10.25024 5.11488-25.58464 10.25024-35.84512 20.48l-209.92 220.15488-394.24 394.23488C-10.24 680.93952-10.24 742.4 30.71488 783.34976l215.04 215.04c15.36512 15.36512 40.95488 25.58976 61.42976 25.58976h614.36928v-51.18464H409.61536l368.62976-373.76512z m-430.08512 358.4c-5.10976 10.24512-20.47488 15.36-30.72512 15.36h-5.10976c-10.25024 0-25.58976-5.10976-35.84-15.36l-215.04-215.04c-5.11488-10.25024-10.25024-20.47488-10.25024-35.84 0-15.37024 5.10976-25.58976 15.36512-35.84L399.37024 337.92c0 20.48 10.24512 35.84 25.58976 51.2l215.03488 215.04c15.36512 15.36 30.72512 20.48 46.09536 25.59488L348.16 957.42976z"
          p-id="1676" fill="#c75450"></path>
</svg>