<?xml version="1.0" standalone="no"?><!DOCTYPE svg PUBLIC "-//W3C//DTD SVG 1.1//EN"
        "http://www.w3.org/Graphics/SVG/1.1/DTD/svg11.dtd">
<svg t="1597386436231" class="icon" viewBox="0 0 1024 1024" version="1.1" xmlns="http://www.w3.org/2000/svg"
     p-id="18445"
     width="14" height="14">
    <defs>
        <style type="text/css"></style>
    </defs>
    <path d="M383.258065 309.527273l324.561455 324.421818a7.261091 7.261091 0 0 1 1.163636 8.983273c-17.547636 28.020364-106.030545 176.593455-129.675636 372.968727a2.327273 2.327273 0 0 1-3.397818 1.722182l-110.173091-66.420364c-0.977455-0.651636-1.396364-1.861818-0.884364-2.932364 10.379636-21.736727 109.521455-229.469091 99.374546-219.275636-10.705455 10.705455-79.313455 83.549091-130.699637 158.068364l-29.556363 40.680727s-115.944727-78.010182-151.738182-126.557091c-0.558545-0.744727-0.651636-1.396364 0-2.048 23.552-28.578909 146.152727-187.950545 146.152727-187.950545l-208.430545 125.021091c-0.977455 0.512-2.094545 0.418909-2.839273-0.465455-10.146909-11.217455-79.732364-88.157091-99.84-124.276364-0.418909-0.744727-0.418909-1.396364 0.325818-2.048 19.874909-16.011636 132.142545-111.150545 132.142546-111.150545l-158.068364 55.947636a2.420364 2.420364 0 0 1-2.839273-1.070545L0.328611 443.392c-0.744727-1.303273-0.186182-2.932364 1.303273-3.258182 27.834182-5.585455 260.002909-53.806545 372.689454-131.584a6.842182 6.842182 0 0 1 8.936727 0.977455z m339.176728 494.312727a81.175273 81.175273 0 1 1 0 162.304 81.175273 81.175273 0 0 1 0-162.304z m143.778909-48.779636a44.218182 44.218182 0 1 1 0 88.343272 44.218182 44.218182 0 0 1 0-88.343272zM894.978793 22.062545a75.822545 75.822545 0 0 1 107.054545 107.333819l-205.312 204.893091c-0.325818 2.839273-0.651636 4.654545-0.884363 7.540363 45.707636 78.987636 45.474909 170.356364-21.597091 240.872727a5.445818 5.445818 0 0 1-7.633455 0.093091L441.06752 257.256727a5.445818 5.445818 0 0 1 0.093091-7.633454c70.376727-67.165091 161.931636-67.397818 240.872727-21.597091l7.447273-0.837818zM313.532975 104.122182a64.791273 64.791273 0 1 1 0 129.582545 64.791273 64.791273 0 0 1 0-129.582545z"
          p-id="18446" fill="#c75450"></path>
</svg>