<svg t="1627285597385" class="icon" viewBox="0 0 1107 1024" version="1.1" xmlns="http://www.w3.org/2000/svg" p-id="33256" width="18" height="18"><path d="M664.241633 697.260408c10.44898 10.365388 10.44898 27.230041-0.10449 37.595429l-58.723265 58.723265a26.624 26.624 0 0 1-37.595429 0l-52.871837-52.871837a16.154122 16.154122 0 0 0-19.100734-2.75853c-12.810449 6.520163-26.038857 12.058122-39.915102 16.446694a16.342204 16.342204 0 0 0-11.661062 15.464489v74.96098a26.540408 26.540408 0 0 1-26.582204 26.603102h-82.964898a26.540408 26.540408 0 0 1-26.582204-26.603102V769.671837a16.342204 16.342204 0 0 0-11.535673-15.46449c-13.771755-4.388571-27.021061-9.947429-39.601633-16.446694a16.342204 16.342204 0 0 0-19.226122 2.758531l-53.289796 53.289796a26.624 26.624 0 0 1-37.574531 0l-58.618775-58.723266a26.624 26.624 0 0 1 0-37.595428l53.498775-53.498776a16.17502 16.17502 0 0 0 2.758531-19.100734 259.301878 259.301878 0 0 1-16.112327-39.288164 16.342204 16.342204 0 0 0-15.485388-11.640163l-75.922285-0.10449A26.540408 26.540408 0 0 1 10.44898 547.254857V464.143673a26.540408 26.540408 0 0 1 26.582204-26.582204c24.032653 0.10449 58.200816 0.10449 76.131265 0.10449a16.216816 16.216816 0 0 0 15.485388-11.535673c4.388571-13.437388 9.717551-26.477714 16.133224-38.953796a16.363102 16.363102 0 0 0-2.779428-19.121633l-53.812245-53.916735a26.51951 26.51951 0 0 1 0-37.595428l58.723265-58.618776a26.624 26.624 0 0 1 37.574531 0l53.812245 53.812245c5.01551 5.140898 12.705959 6.102204 19.121632 2.779429 12.39249-6.394776 25.286531-11.744653 38.765715-16.112327a16.342204 16.342204 0 0 0 11.535673-15.485387V166.70302c0-14.628571 11.849143-26.603102 26.582204-26.603102h82.964898c14.628571 0 26.582204 11.870041 26.582204 26.603102v75.796898c0 7.27249 4.806531 13.353796 11.640163 15.485388 13.562776 4.284082 26.686694 9.613061 39.288164 16.028735a16.300408 16.300408 0 0 0 19.121632-2.779429l53.603266-53.603265a26.624 26.624 0 0 1 37.57453 0l58.723266 58.723265a26.624 26.624 0 0 1 0 37.595429l-53.164409 53.164408a16.467592 16.467592 0 0 0-2.674938 19.226122c6.624653 12.705959 12.058122 25.829878 16.551183 39.601633a16.342204 16.342204 0 0 0 15.46449 11.535674h75.295347a26.540408 26.540408 0 0 1 26.582204 26.582204v82.964898a26.540408 26.540408 0 0 1-26.582204 26.603102h-74.85649a16.342204 16.342204 0 0 0-15.46449 11.619265 268.037224 268.037224 0 0 1-16.446693 39.936 16.300408 16.300408 0 0 0 2.779428 19.121633l52.955429 52.955428z m-161.332245-165.929796a128.877714 128.877714 0 0 0-151.426612-151.405714c-50.593959 9.613061-91.386776 50.405878-100.999837 101.020735a128.877714 128.877714 0 0 0 151.405714 151.405714c50.614857-9.613061 91.407673-50.405878 100.999837-101.020735z m158.448326-297.900408a17.491592 17.491592 0 0 1-10.992326-22.005551l29.131755-87.437061a17.491592 17.491592 0 0 1 22.005551-10.992327l61.502694 20.48a17.345306 17.345306 0 0 0 22.528-19.957551l-13.019429-63.634285a17.387102 17.387102 0 0 1 13.562776-20.500898l90.320979-18.578286c9.404082-1.922612 18.599184 4.179592 20.500898 13.562775l13.019429 63.529796a17.345306 17.345306 0 0 0 28.525714 9.508572l48.566857-43.154286a17.491592 17.491592 0 0 1 24.576 1.504653l61.168327 68.963265a17.491592 17.491592 0 0 1-1.483755 24.576l-48.587755 43.133388a17.408 17.408 0 0 0 6.081306 29.466123l61.711673 20.605387c9.090612 3.092898 14.001633 12.935837 11.013225 22.005551l-29.152653 87.437062a17.491592 17.491592 0 0 1-22.005551 11.013224l-61.607184-20.500898a17.345306 17.345306 0 0 0-22.528 19.957551l13.019428 63.634286c1.922612 9.404082-4.158694 18.599184-13.541877 20.500898l-90.341878 18.599184a17.387102 17.387102 0 0 1-20.500898-13.583674l-13.019428-63.634286a17.345306 17.345306 0 0 0-28.525714-9.487673l-48.566858 43.133388a17.491592 17.491592 0 0 1-24.555102-1.504653l-61.189224-68.963266a17.491592 17.491592 0 0 1 1.483755-24.576l48.587755-43.133388a17.408 17.408 0 0 0-6.081306-29.466122l-61.607184-20.500898z m154.394123-29.884082a69.130449 69.130449 0 0 0 51.576163 102.922449 69.109551 69.109551 0 0 0 68.754286-34.377142 69.276735 69.276735 0 0 0-51.576164-103.026939 69.381224 69.381224 0 0 0-68.754285 34.481632z m287.346939 560.671347a17.491592 17.491592 0 0 1-11.661062 21.775674l-62.464 19.017143a17.491592 17.491592 0 0 0-6.833632 29.466122l47.730938 44.512653a17.408 17.408 0 0 1 0.856817 24.659592l-63.216327 67.709388a17.408 17.408 0 0 1-24.659592 0.835918l-47.730938-44.512653a17.491592 17.491592 0 0 0-28.922776 8.860735l-14.733061 63.529796a17.428898 17.428898 0 0 1-20.939755 13.040326l-90.21649-20.939755a17.428898 17.428898 0 0 1-13.040327-20.918857l14.733062-63.529796a17.470694 17.470694 0 0 0-22.089143-20.605388l-62.484898 19.017143a17.533388 17.533388 0 0 1-21.775674-11.661061l-27.000163-88.607347a17.533388 17.533388 0 0 1 11.640163-21.796571l62.464-19.017143a17.491592 17.491592 0 0 0 6.833633-29.466123l-47.730939-44.512653a17.408 17.408 0 0 1-0.856816-24.659592l63.216326-67.709387a17.408 17.408 0 0 1 24.659592-0.835919l47.730939 44.512653a17.491592 17.491592 0 0 0 28.922776-8.860734l14.753959-63.529796a17.428898 17.428898 0 0 1 20.918857-13.040327l90.21649 20.939755c9.404082 2.131592 15.171918 11.535673 13.040326 20.918857l-14.733061 63.529796a17.470694 17.470694 0 0 0 22.089143 20.626286l62.484898-19.017143a17.533388 17.533388 0 0 1 21.775673 11.640163l27.000164 88.607347z m-194.246531 82.212572a69.861878 69.861878 0 0 0 36.320653-68.231837 69.652898 69.652898 0 0 0-102.19102-54.460082 69.861878 69.861878 0 0 0-36.299756 68.231837 69.694694 69.694694 0 0 0 102.191021 54.460082z" p-id="33257" fill="#c75450"></path></svg>