<svg t="1627285657833" class="icon" viewBox="0 0 1024 1024" version="1.1" xmlns="http://www.w3.org/2000/svg" p-id="33521" width="17" height="17"><path d="M755.8 429.1c-1.7-13.6-4.4-27.1-7.9-40.3-3.8-13.2-8.5-26.1-14.1-38.6l64.1-80c6.3-7.9 5.6-19.2-1.6-26.3L681.7 131.4c-7.2-7.1-18.6-7.5-26.3-1l-78.6 65.7c-25.4-10.5-52.1-17.5-79.4-20.6l-37.2-95.4c-3.7-9.4-13.8-14.5-23.5-11.7L282 111.5c-9.7 2.7-15.8 12.3-14 22.3l17.5 100.9c-21.8 16.8-41.1 36.6-57.3 58.7l-101.3-15.5c-10-1.5-19.5 4.8-22 14.6L65 447.9c-2.5 9.8 2.8 19.8 12.2 23.3l96.3 35.3c1.7 13.6 4.4 27.1 7.9 40.3 3.8 13.2 8.5 26.1 14.1 38.6l-64.1 80c-6.3 7.9-5.6 19.2 1.6 26.3l114.7 112.5c7.2 7.1 18.6 7.5 26.3 1l78.7-65.7c25.4 10.5 52.1 17.5 79.4 20.6l37.1 95.4c3.6 9.4 13.8 14.5 23.5 11.8l154.6-43.1c9.7-2.7 15.8-12.3 14-22.3L643.7 701c21.8-16.8 41.1-36.6 57.3-58.7l101.3 15.5c10 1.5 19.5-4.8 22-14.6l40-155.6c2.5-9.8-2.8-19.8-12.2-23.3l-96.3-35.2zM506.7 619c-40.1 11.2-82.9 6-119.2-14.5-36.2-20.4-62.8-54.5-74-94.5-23.3-83.5 25.5-170 108.9-193.3 40.1-11.2 82.9-6 119.2 14.5 36.2 20.5 62.8 54.5 74 94.5 23.3 83.5-25.4 170-108.9 193.3z m0 0" p-id="33522" fill="#c75450"></path><path d="M914.2 853.1c4-8.8 6.6-18.2 7.7-27.9l33.9-12.6c3.3-1.2 5.2-4.8 4.3-8.2l-14.3-54.8c-0.9-3.4-4.3-5.6-7.8-5.1l-35.7 5.6c-5.8-7.8-12.6-14.7-20.3-20.6l6.1-35.6c0.6-3.5-1.6-6.9-5-7.8l-54.6-15c-3.4-1-7 0.8-8.3 4.2l-13 33.8c-9.6 1.1-19.1 3.6-28 7.3l-27.8-23.1c-2.7-2.3-6.7-2.1-9.3 0.4l-40.4 39.8c-2.5 2.5-2.8 6.5-0.5 9.3l22.7 28.2c-4 8.8-6.6 18.2-7.7 27.9l-33.9 12.6c-3.3 1.2-5.2 4.8-4.3 8.2l14.3 54.8c0.9 3.4 4.3 5.6 7.8 5.1l35.7-5.6c5.8 7.8 12.6 14.7 20.3 20.6l-6.1 35.6c-0.6 3.5 1.6 6.9 5 7.8l54.6 15c3.4 1 7-0.8 8.3-4.2l13-33.7c9.6-1.1 19.1-3.6 28-7.4l27.8 23.1c2.7 2.3 6.7 2.1 9.3-0.4l40.4-39.8c2.5-2.5 2.8-6.5 0.5-9.3l-22.7-28.2z m-109.8 12.3c-21.6-5.9-37.5-24.3-40.3-46.5-2.8-22.2 8.1-43.9 27.6-55 19.5-11.1 43.7-9.3 61.4 4.4 17.7 13.8 25.3 36.8 19.4 58.4-3.9 14.2-13.2 26.2-26 33.5-12.9 7.2-28 9.1-42.1 5.2z m0 0" p-id="33523" fill="#c75450"></path></svg>