<svg t="1606306540608" class="icon" viewBox="0 0 1024 1024" version="1.1" xmlns="http://www.w3.org/2000/svg" p-id="20955" width="13" height="13"><path d="M970.77248 158.60224l-74.65984-90.28096a78.04416 78.04416 0 0 0-61.75232-29.4912H189.6448c-25.20576 0-47.2576 11.24864-62.30016 29.56288L53.22752 158.60224a105.1392 105.1392 0 0 0-24.7296 68.23936V898.3552c0 59.12064 48.34304 107.47904 107.47904 107.47904h752.11776c59.0336 0 107.40736-48.3584 107.40736-107.47904V226.8416c0.01024-25.75872-9.1136-49.93536-24.7296-68.23936z m-458.76736 661.2992l-297.56928-297.56928h185.93792V373.55008h223.18592v148.78208h185.92768l-297.48224 297.56928zM140.05248 150.38464l37.1712-74.3936h669.40928l37.1712 74.3936H140.05248z" p-id="20956" fill="#c75450"></path></svg>