<?xml version="1.0" standalone="no"?><!DOCTYPE svg PUBLIC "-//W3C//DTD SVG 1.1//EN" "http://www.w3.org/Graphics/SVG/1.1/DTD/svg11.dtd"><svg t="1646210208633" class="icon" viewBox="0 0 1024 1024" version="1.1" xmlns="http://www.w3.org/2000/svg" p-id="23081" width="14" height="14" xmlns:xlink="http://www.w3.org/1999/xlink"><defs><style type="text/css"></style></defs><path d="M128 192m64 0l640 0q64 0 64 64l0 0q0 64-64 64l-640 0q-64 0-64-64l0 0q0-64 64-64Z" p-id="23082" fill="#c75450"></path><path d="M128 448m64 0l640 0q64 0 64 64l0 0q0 64-64 64l-640 0q-64 0-64-64l0 0q0-64 64-64Z" p-id="23083" fill="#c75450"></path><path d="M128 704m64 0l640 0q64 0 64 64l0 0q0 64-64 64l-640 0q-64 0-64-64l0 0q0-64 64-64Z" p-id="23084" fill="#c75450"></path></svg>