<?xml version="1.0" standalone="no"?><!DOCTYPE svg PUBLIC "-//W3C//DTD SVG 1.1//EN" "http://www.w3.org/Graphics/SVG/1.1/DTD/svg11.dtd"><svg t="1602215568760" class="icon" viewBox="0 0 1024 1024" version="1.1" xmlns="http://www.w3.org/2000/svg" p-id="6753" width="14" height="14" xmlns:xlink="http://www.w3.org/1999/xlink"><defs><style type="text/css"></style></defs><path d="M301.682785 213.326661m45.254834 45.254834l211.189226 211.189226q45.254834 45.254834 0 90.509668l0 0q-45.254834 45.254834-90.509668 0l-211.189226-211.189226q-45.254834-45.254834 0-90.509668l0 0q45.254834-45.254834 90.509668 0Z" fill="#c75450" p-id="6754"></path><path d="M603.381679 515.025555m-45.254834 45.254834l-211.189226 211.189225q-45.254834 45.254834-90.509668 0l0 0q-45.254834-45.254834 0-90.509668l211.189226-211.189225q45.254834-45.254834 90.509668 0l0 0q45.254834 45.254834 0 90.509668Z" fill="#c75450" p-id="6755"></path><path d="M301.682785 213.326661m45.254834 45.254834l0 0q45.254834 45.254834 0 90.509668l0 0q-45.254834 45.254834-90.509668 0l0 0q-45.254834-45.254834 0-90.509668l0 0q45.254834-45.254834 90.509668 0Z" fill="#c75450" p-id="6756"></path><path d="M682.198858 258.575933l211.189225 211.189225a64 64 0 1 1-90.509668 90.509668l-211.189225-211.189225a64 64 0 0 1 90.509668-90.509668z" fill="#c75450" p-id="6757"></path><path d="M893.388083 560.274826l-211.189225 211.189226a64 64 0 0 1-90.509668-90.509668l211.189225-211.189226a64 64 0 1 1 90.509668 90.509668z" fill="#c75450" p-id="6758"></path><path d="M636.944024 635.69955m45.254834 45.254834l0 0q45.254834 45.254834 0 90.509668l0 0q-45.254834 45.254834-90.509668 0l0 0q-45.254834-45.254834 0-90.509668l0 0q45.254834-45.254834 90.509668 0Z" fill="#c75450" p-id="6759"></path></svg>