<?xml version="1.0" standalone="no"?><!DOCTYPE svg PUBLIC "-//W3C//DTD SVG 1.1//EN" "http://www.w3.org/Graphics/SVG/1.1/DTD/svg11.dtd"><svg t="1602215592642" class="icon" viewBox="0 0 1024 1024" version="1.1" xmlns="http://www.w3.org/2000/svg" p-id="7021" width="14" height="14" xmlns:xlink="http://www.w3.org/1999/xlink"><defs><style type="text/css"></style></defs><path d="M512 36.571A476.014 476.014 0 0 0 36.571 512c0 262.144 213.285 475.429 475.429 475.429S987.429 774.144 987.429 512 774.144 36.571 512 36.571z m0 877.715A402.725 402.725 0 0 1 109.714 512c0-221.842 180.444-402.286 402.286-402.286S914.286 290.158 914.286 512 733.842 914.286 512 914.286z" p-id="7022" fill="#c75450"></path><path d="M460.361 298.203a36.571 36.571 0 0 0-58.075 29.623v388.316a36.571 36.571 0 0 0 58.075 29.55l266.972-194.195a36.571 36.571 0 0 0 0-59.172L460.36 298.203z" p-id="7023" fill="#c75450"></path></svg>