<svg t="1602239223028" class="icon" viewBox="0 0 1024 1024" version="1.1" xmlns="http://www.w3.org/2000/svg" p-id="22009" width="17" height="17"><path d="M532.410182 57.041455a43.403636 43.403636 0 0 0-59.973818 3.886545 511.371636 511.371636 0 0 0-147.874909 367.36v44.497455l-82.920728 102.283636a45.498182 45.498182 0 0 0-10.216727 29.300364l2.769455 136.820363c0.162909 14.987636 8.541091 28.672 21.806545 35.653818a43.985455 43.985455 0 0 0 42.845091-1.652363l85.131636-51.130182a145.943273 145.943273 0 0 0 132.677818 60.532364h10.24a159.720727 159.720727 0 0 0 118.574546-74.91491l82.920727 37.585455c14.010182 6.097455 30.161455 4.654545 42.845091-3.863273l5.259636-4.142545c10.077091-8.634182 15.848727-21.271273 15.755637-34.56l-3.607273-138.216727a40.634182 40.634182 0 0 0-11.613091-27.648l-82.920727-85.690182v-49.757091a460.939636 460.939636 0 0 0-161.698909-346.344727z m17.431273 357.422545a59.136 59.136 0 1 1 8.02909-85.154909 60.206545 60.206545 0 0 1-8.02909 85.154909z m40.354909 403.013818h-148.154182a15.732364 15.732364 0 0 0-14.359273 22.388364l72.704 126.045091c1.256727 2.117818 2.653091 4.142545 4.142546 6.074182 5.794909 6.353455 9.681455 4.980364 17.128727-3.863273l-2.769455 3.328a35.84 35.84 0 0 0 5.794909-6.912l77.684364-124.113455a15.197091 15.197091 0 0 0 0-14.917818 14.429091 14.429091 0 0 0-12.706909-7.470545l0.535273-0.558546z m0 0" p-id="22010" fill="#c75450"></path></svg>